<svg xmlns="http://www.w3.org/2000/svg" viewBox="0 0 80 83" width="80" height="83">
	<style>
		tspan { white-space:pre }
		.shp0 { fill: #3c3c3c } 
	</style>
	<g id="what we do">
		<path id="Shape 2" class="shp0" d="M77.96 -0.01L66.03 -0.01C64.91 -0.01 64.01 0.89 64.01 2.01L64.01 6.18L15.86 6.18L15.86 2.01C15.86 0.89 14.96 -0.01 13.84 -0.01L2.02 -0.01C0.9 -0.01 0 0.89 0 2.01L0 14.28C0 15.4 0.9 16.3 2.02 16.3L13.95 16.3C15.07 16.3 15.97 15.4 15.97 14.28L15.97 10.11L38.13 10.11C37.91 15.06 25.87 38.35 18.22 52.08C17.77 52.87 18 53.88 18.67 54.55C25.53 60.4 27.22 66.14 27.67 69.07L25.08 69.07C23.96 69.07 23.06 69.97 23.06 71.09L23.06 80.99C23.06 82.12 23.96 83.02 25.08 83.02L55.01 83.02C56.13 83.02 57.03 82.12 57.03 80.99L57.03 71.09C57.03 69.97 56.13 69.07 55.01 69.07L52.42 69.07C52.87 66.14 54.56 60.4 61.42 54.55C62.09 53.99 62.32 52.87 61.87 52.08C54.22 38.35 42.18 14.95 41.96 10.11L64.01 10.11L64.01 14.28C64.01 15.4 64.91 16.3 66.03 16.3L77.96 16.3C79.08 16.3 79.98 15.4 79.98 14.28L79.98 2.01C79.98 0.89 79.08 -0.01 77.96 -0.01ZM11.92 12.25L3.94 12.25L3.94 3.93L11.92 3.93L11.92 12.25ZM40.05 45.22C41.51 45.22 42.63 46.34 42.63 47.8C42.63 49.27 41.51 50.39 40.05 50.39C38.58 50.39 37.46 49.27 37.46 47.8C37.46 46.45 38.7 45.22 40.05 45.22ZM53.1 78.86L27.11 78.86L27.11 72.89L29.81 72.89L50.4 72.89L53.1 72.89L53.1 78.86ZM48.48 68.95L31.61 68.95C31.16 65.69 29.47 59.17 22.39 52.53C25.08 47.58 33.18 32.73 38.02 21.7L38.02 41.62C35.43 42.4 33.52 44.88 33.52 47.8C33.52 51.4 36.45 54.33 40.05 54.33C43.65 54.33 46.57 51.4 46.57 47.8C46.57 44.88 44.66 42.52 42.07 41.62L42.07 21.59C47.02 32.62 55.01 47.47 57.71 52.53C50.62 59.17 48.93 65.69 48.48 68.95ZM76.04 12.25L68.06 12.25L68.06 8.54C68.06 8.43 68.06 8.31 68.06 8.2C68.06 8.09 68.06 7.98 68.06 7.86L68.06 4.04L76.04 4.04L76.04 12.25Z" />
	</g>
</svg>