<svg xmlns="http://www.w3.org/2000/svg" viewBox="0 0 79 76" width="79" height="76">
	<style>
		tspan { white-space:pre }
		.shp0 { fill: #3c3c3c } 
	</style>
	<g id="what we do">
		<path id="Shape 3" class="shp0" d="M76.92 76L2.08 76C0.93 76 0 75.06 0 73.9L0 12.98C0 11.82 0.93 10.88 2.08 10.88L76.92 10.88C78.07 10.88 79 11.82 79 12.98L79 73.9C79 75.06 78.07 76 76.92 76ZM4.16 71.8L74.84 71.8L74.84 15.08L4.16 15.08L4.16 71.8ZM76.92 15.08L2.08 15.08C0.93 15.08 0 14.14 0 12.98L0 2.09C0 0.93 0.93 -0.01 2.08 -0.01L76.92 -0.01C78.07 -0.01 79 0.93 79 2.09L79 12.98C79 14.14 78.07 15.08 76.92 15.08ZM4.16 10.88L74.84 10.88L74.84 4.19L4.16 4.19L4.16 10.88ZM9.18 6.07C9.98 6.07 10.63 6.73 10.63 7.54C10.63 8.35 9.98 9.01 9.18 9.01C8.38 9.01 7.73 8.35 7.73 7.54C7.73 6.73 8.38 6.07 9.18 6.07ZM13.53 6.07C14.33 6.07 14.98 6.73 14.98 7.54C14.98 8.35 14.33 9 13.53 9C12.73 9 12.08 8.35 12.08 7.54C12.08 6.73 12.73 6.07 13.53 6.07ZM17.88 6.07C18.68 6.07 19.34 6.73 19.34 7.54C19.34 8.35 18.68 9.01 17.88 9.01C17.08 9.01 16.43 8.35 16.43 7.54C16.43 6.73 17.08 6.07 17.88 6.07ZM29.04 49.18C28.58 49.18 28.11 49 27.76 48.64L22.1 42.93C21.39 42.21 21.39 41.05 22.1 40.33L27.75 34.62C28.46 33.91 29.61 33.91 30.32 34.62C31.03 35.34 31.03 36.5 30.32 37.22L25.96 41.63L30.33 46.04C31.04 46.76 31.04 47.92 30.33 48.64C29.98 49 29.51 49.18 29.04 49.18ZM49.96 49.18C49.5 49.18 49.03 49 48.68 48.64C47.97 47.92 47.97 46.76 48.68 46.04L53.04 41.64L48.67 37.22C47.96 36.5 47.96 35.34 48.67 34.62C49.38 33.91 50.53 33.91 51.24 34.62L56.9 40.34C57.24 40.68 57.43 41.15 57.43 41.64C57.43 42.12 57.24 42.59 56.9 42.93L51.25 48.64C50.89 49 50.43 49.18 49.96 49.18ZM36.89 53.42C36.74 53.42 36.59 53.4 36.44 53.36C35.47 53.11 34.88 52.11 35.13 51.13L39.75 32.85C40 31.86 41 31.27 41.96 31.52C42.94 31.77 43.53 32.77 43.28 33.76L38.65 52.04C38.44 52.87 37.7 53.42 36.89 53.42Z" />
	</g>
</svg>