<svg xmlns="http://www.w3.org/2000/svg" viewBox="0 0 79 91" width="79" height="91">
	<style>
		tspan { white-space:pre }
		.shp0 { fill: #3c3c3c } 
	</style>
	<g id="what we do">
		<path id="Shape 4" class="shp0" d="M21.76 38.11C21.35 38.11 20.95 37.96 20.65 37.66L17.55 34.58C16.94 33.97 16.94 32.98 17.55 32.38C18.16 31.77 19.15 31.77 19.77 32.38L21.76 34.35L26.84 29.3C27.46 28.69 28.45 28.69 29.06 29.3C29.67 29.91 29.67 30.89 29.06 31.5L22.87 37.66C22.56 37.96 22.16 38.11 21.76 38.11ZM54.31 35.04L35.64 35.04C34.77 35.04 34.07 34.34 34.07 33.48C34.07 32.62 34.77 31.92 35.64 31.92L54.31 31.92C55.18 31.92 55.88 32.62 55.88 33.48C55.88 34.34 55.18 35.04 54.31 35.04ZM21.76 64.79C21.35 64.79 20.95 64.64 20.65 64.34L17.55 61.26C16.94 60.65 16.94 59.66 17.55 59.06C18.16 58.45 19.15 58.45 19.77 59.06L21.76 61.03L26.84 55.98C27.46 55.37 28.45 55.37 29.06 55.98C29.67 56.59 29.67 57.58 29.06 58.18L22.87 64.34C22.56 64.64 22.16 64.79 21.76 64.79ZM54.31 61.72L35.64 61.72C34.77 61.72 34.07 61.02 34.07 60.16C34.07 59.3 34.77 58.6 35.64 58.6L54.31 58.6C55.18 58.6 55.88 59.3 55.88 60.16C55.88 61.02 55.18 61.72 54.31 61.72ZM21.76 78.14C21.35 78.14 20.95 77.98 20.65 77.68L17.55 74.6C16.94 73.99 16.94 73.01 17.55 72.4C18.16 71.79 19.15 71.79 19.77 72.4L21.76 74.37L26.84 69.32C27.46 68.71 28.45 68.71 29.06 69.32C29.68 69.93 29.67 70.92 29.06 71.53L22.87 77.68C22.56 77.98 22.16 78.14 21.76 78.14ZM54.31 75.06L35.64 75.06C34.77 75.06 34.07 74.36 34.07 73.5C34.07 72.64 34.77 71.94 35.64 71.94L54.31 71.94C55.18 71.94 55.88 72.64 55.88 73.5C55.88 74.36 55.18 75.06 54.31 75.06ZM21.76 51.45C21.35 51.45 20.95 51.3 20.65 51L17.55 47.92C16.94 47.31 16.94 46.32 17.55 45.71C18.16 45.11 19.15 45.11 19.77 45.71L21.76 47.69L26.84 42.64C27.46 42.03 28.45 42.03 29.06 42.64C29.68 43.25 29.67 44.23 29.06 44.84L22.87 51C22.56 51.3 22.16 51.45 21.76 51.45ZM54.31 48.38L35.64 48.38C34.77 48.38 34.07 47.68 34.07 46.82C34.07 45.96 34.77 45.26 35.64 45.26L54.31 45.26C55.18 45.26 55.88 45.96 55.88 46.82C55.88 47.68 55.18 48.38 54.31 48.38ZM76.89 11.4L58.42 11.4C58.2 8.22 55.53 5.72 52.28 5.72L46.3 5.72C46.25 2.57 43.67 0.01 40.48 0.01C37.3 0.01 34.7 2.57 34.67 5.72L28.68 5.72C25.44 5.72 22.77 8.22 22.55 11.4L2.08 11.4C0.92 11.4 -0.01 12.34 -0.01 13.48L-0.01 88.92C-0.01 90.07 0.92 91 2.08 91L76.89 91C78.05 91 78.98 90.07 78.98 88.92L78.98 13.48C78.98 12.34 78.05 11.4 76.89 11.4ZM26.71 11.84C26.71 10.76 27.59 9.88 28.68 9.88L35.22 9.88C37.23 9.88 38.86 8.26 38.86 6.27L38.86 5.79C38.86 4.9 39.59 4.17 40.48 4.17C41.38 4.17 42.11 4.9 42.11 5.79L42.11 6.27C42.11 8.26 43.74 9.88 45.74 9.88L52.28 9.88C53.38 9.88 54.26 10.76 54.26 11.84L54.26 16.1L26.71 16.1L26.71 11.84L26.71 11.84ZM74.8 86.84L4.17 86.84L4.17 15.56L22.53 15.56L22.53 18.18C22.53 19.33 23.46 20.26 24.62 20.26L56.35 20.26C57.51 20.26 58.44 19.33 58.44 18.18L58.44 15.56L74.79 15.56L74.79 86.84L74.8 86.84ZM40.48 10.14C41.59 10.14 42.49 11.03 42.49 12.14C42.49 13.24 41.59 14.13 40.48 14.13C39.37 14.13 38.47 13.24 38.47 12.14C38.47 11.03 39.37 10.14 40.48 10.14Z" />
	</g>
</svg>